# Blender v2.91.2 OBJ File: ''
# www.blender.org
mtllib talla_brillante_1.mtl
o Cylinder.019_Cylinder.028
v -0.000032 3.831030 -9.888581
v -0.000032 4.117440 -9.925059
v 3.798126 4.117439 -9.169542
v 3.784184 3.831030 -9.135853
v 7.018084 4.117439 -7.018051
v 6.992273 3.831030 -6.992289
v 9.169575 4.117439 -3.798126
v 9.135885 3.831029 -3.784183
v 9.925076 4.117438 0.000049
v 9.888597 3.831029 0.000049
v 9.169575 4.117437 3.798224
v 9.135885 3.831028 3.784249
v 7.018084 4.117437 7.018165
v 6.992273 3.831028 6.992355
v 3.798159 4.117436 9.169656
v 3.784184 3.831027 9.135950
v -0.000032 4.117436 9.925157
v -0.000032 3.831027 9.888679
v -3.798191 4.117436 9.169656
v -3.784248 3.831027 9.135950
v -7.018148 4.117437 7.018165
v -6.992338 3.831028 6.992355
v -9.169640 4.117437 3.798224
v -9.135950 3.831028 3.784249
v -9.925140 4.117438 0.000049
v -9.888662 3.831029 0.000049
v -9.169640 4.117439 -3.798126
v -9.135950 3.831029 -3.784183
v -7.018148 4.117439 -7.018051
v -6.992338 3.831030 -6.992289
v -3.798191 4.117439 -9.169542
v -3.784248 3.831030 -9.135853
v -0.000032 -4.866982 -0.689874
v 0.328627 -4.866982 -0.793374
v 0.487833 -4.866982 -0.487818
v 0.793406 -4.866982 -0.328595
v 0.689938 -4.866982 0.000048
v 0.793406 -4.866982 0.328690
v 0.487833 -4.866982 0.487913
v 0.328627 -4.866982 0.793469
v -0.000032 -4.866982 0.689985
v -0.328691 -4.866982 0.793469
v -0.487898 -4.866982 0.487913
v -0.793470 -4.866982 0.328690
v -0.689970 -4.866982 0.000048
v -0.793470 -4.866982 -0.328595
v -0.487898 -4.866982 -0.487818
v -0.328691 -4.866982 -0.793374
v -6.840881 6.118890 2.833615
v -5.066784 6.991324 0.000049
v -6.840881 6.118891 -2.833500
v 3.582695 6.991324 -3.582694
v 2.833549 6.118892 -6.840783
v -0.000032 6.991325 -5.066734
v 5.066719 6.991324 0.000049
v 6.840816 6.118891 -2.833500
v 3.582695 6.991323 3.582809
v 6.840816 6.118890 2.833615
v -0.000032 6.991323 5.066801
v 2.833549 6.118890 6.840882
v -3.582760 6.991324 -3.582694
v -3.582760 6.991323 3.582809
v -2.833582 6.118892 -6.840783
v -2.833614 6.118890 6.840882
v -0.673855 -3.973159 -1.626678
v -1.626759 -3.973159 -0.673759
v -1.626759 -3.973159 0.673870
v -0.673855 -3.973160 1.626741
v 0.673790 -3.973160 1.626741
v 1.626694 -3.973159 0.673870
v 1.626694 -3.973159 -0.673759
v 0.673790 -3.973159 -1.626678
vt 0.587689 0.918838
vt 0.584140 0.925227
vt 0.511271 0.883976
vt 0.515087 0.877739
vt 0.457555 0.848497
vt 0.461568 0.842390
vt 0.988436 0.719038
vt 0.995851 0.718572
vt 1.000000 0.800839
vt 0.992570 0.801003
vt 1.000000 0.889884
vt 0.992570 0.889721
vt 0.995851 0.972151
vt 0.988436 0.971685
vt 0.462631 0.649142
vt 0.457555 0.643846
vt 0.503831 0.599451
vt 0.508737 0.604911
vt 0.567878 0.545992
vt 0.572548 0.551648
vt 0.639944 0.491608
vt 0.644350 0.497464
vt 0.709060 0.444579
vt 0.713211 0.450607
vt 0.764701 0.412063
vt 0.768648 0.418211
vt 0.004013 0.605269
vt 0.000000 0.599162
vt 0.053717 0.563683
vt 0.057533 0.569920
vt 0.126586 0.522433
vt 0.130134 0.528821
vt 0.207513 0.481690
vt 0.210764 0.488229
vt 0.284179 0.447659
vt 0.287148 0.454323
vt 0.744703 0.993337
vt 0.741734 1.000000
vt 0.665068 0.965969
vt 0.668319 0.959431
vt 0.666694 0.226102
vt 0.667572 0.233978
vt 0.659799 0.236198
vt 0.654728 0.242374
vt 0.647627 0.238566
vt 0.639577 0.239426
vt 0.637308 0.231821
vt 0.630995 0.226859
vt 0.634887 0.219912
vt 0.634008 0.212036
vt 0.641782 0.209816
vt 0.646853 0.203640
vt 0.653954 0.207448
vt 0.662004 0.206588
vt 0.664273 0.214193
vt 0.670586 0.219155
vt 0.183271 0.447659
vt 0.132097 0.365392
vt 0.205546 0.338095
vt 0.262727 0.390814
vt 0.327788 0.159104
vt 0.399453 0.190614
vt 0.345568 0.246558
vt 0.252009 0.109565
vt 0.325458 0.082267
vt 0.162621 0.126961
vt 0.194828 0.056845
vt 0.111987 0.201101
vt 0.084086 0.129241
vt 0.294934 0.320699
vt 0.129767 0.288556
vt 0.373470 0.318419
vt 0.058102 0.257045
vt 0.034829 0.350619
vt 0.000000 0.179307
vt 0.099185 0.034076
vt 0.274284 0.000000
vt 0.422726 0.097040
vt 0.457555 0.268352
vt 0.358370 0.413583
vt 0.274284 0.447659
vt 0.099185 0.413583
vt 0.000000 0.268352
vt 0.034829 0.097040
vt 0.183271 0.000000
vt 0.358369 0.034076
vt 0.457555 0.179307
vt 0.422726 0.350619
vt 0.736781 0.749573
vt 0.279226 0.698086
vt 0.521675 0.033951
vt 0.642717 0.183299
vt 0.616383 0.200514
vt 0.457555 0.096684
vt 0.762720 0.683412
vt 0.768648 0.709798
vt 0.762338 0.714689
vt 0.737674 0.701404
vt 0.457555 0.349330
vt 0.610204 0.230905
vt 0.627800 0.256670
vt 0.521675 0.412063
vt 0.769783 0.867855
vt 0.744808 0.856333
vt 0.744703 0.848457
vt 0.770519 0.837463
vt 0.779906 0.412063
vt 0.658863 0.262715
vt 0.685197 0.245500
vt 0.844026 0.349330
vt 0.709497 0.735028
vt 0.731396 0.718572
vt 0.738601 0.722085
vt 0.844026 0.096684
vt 0.691376 0.215109
vt 0.673780 0.189344
vt 0.251942 0.712632
vt 0.281047 0.725574
vt 0.273841 0.729087
vt 0.605451 0.000000
vt 0.756432 0.718573
vt 0.745167 0.841509
vt 0.744703 0.725667
vt 0.287148 0.721992
vn 0.1936 -0.1239 -0.9732
vn 0.5513 -0.1239 -0.8251
vn 0.8251 -0.1239 -0.5513
vn 0.9732 -0.1239 -0.1936
vn 0.9732 -0.1239 0.1936
vn 0.8251 -0.1240 0.5513
vn 0.5513 -0.1240 0.8250
vn 0.1936 -0.1240 0.9732
vn -0.1936 -0.1240 0.9732
vn -0.5513 -0.1240 0.8251
vn -0.8251 -0.1240 0.5513
vn -0.9732 -0.1239 0.1936
vn -0.9732 -0.1239 -0.1936
vn -0.8251 -0.1239 -0.5513
vn -0.5513 -0.1239 -0.8251
vn -0.1936 -0.1239 -0.9732
vn 0.0000 -1.0000 0.0000
vn -0.5091 0.8607 0.0000
vn 0.1167 0.9523 -0.2819
vn 0.2819 0.9523 -0.1167
vn 0.2819 0.9523 0.1167
vn 0.1167 0.9523 0.2819
vn 0.0000 1.0000 0.0000
vn -0.1168 0.9523 -0.2819
vn -0.2819 0.9523 -0.1167
vn -0.2819 0.9523 0.1167
vn -0.1167 0.9523 0.2819
vn -0.3600 0.8607 0.3600
vn 0.0000 0.8607 0.5091
vn 0.3600 0.8607 0.3600
vn 0.5091 0.8607 0.0000
vn 0.3600 0.8607 -0.3600
vn 0.0000 0.8607 -0.5091
vn -0.3600 0.8607 -0.3600
vn -0.5232 0.7772 -0.3496
vn -0.6171 0.7772 -0.1228
vn -0.6171 0.7772 0.1228
vn -0.5232 0.7772 0.3496
vn -0.3496 0.7772 0.5232
vn -0.1228 0.7772 0.6171
vn 0.1228 0.7772 0.6171
vn 0.3496 0.7772 0.5232
vn 0.5232 0.7772 0.3496
vn 0.6171 0.7772 0.1228
vn 0.6171 0.7772 -0.1228
vn 0.5232 0.7772 -0.3496
vn 0.3496 0.7772 -0.5232
vn 0.1228 0.7772 -0.6171
vn -0.1228 0.7772 -0.6171
vn -0.3496 0.7772 -0.5232
vn -0.1365 -0.7146 -0.6861
vn -0.5817 -0.7146 -0.3887
vn -0.6861 -0.7146 -0.1365
vn -0.4887 -0.7227 0.4887
vn -0.4872 -0.7227 0.4902
vn -0.3887 -0.7146 0.5817
vn 0.0000 -0.7227 0.6911
vn 0.0021 -0.7227 0.6911
vn 0.1365 -0.7146 0.6861
vn 0.4887 -0.7227 0.4887
vn 0.4902 -0.7227 0.4872
vn 0.5817 -0.7146 0.3887
vn 0.6911 -0.7227 0.0000
vn 0.6911 -0.7227 -0.0021
vn 0.6861 -0.7146 -0.1365
vn 0.4887 -0.7227 -0.4887
vn 0.4872 -0.7227 -0.4902
vn 0.3887 -0.7146 -0.5817
vn 0.0000 -0.7227 -0.6911
vn -0.0021 -0.7227 -0.6911
vn -0.4887 -0.7227 -0.4887
vn -0.4902 -0.7227 -0.4872
vn 0.1365 -0.7146 -0.6861
vn -0.4872 -0.7227 -0.4902
vn -0.3887 -0.7146 -0.5817
vn -0.6911 -0.7227 -0.0021
vn -0.6911 -0.7227 -0.0000
vn -0.6861 -0.7146 0.1365
vn -0.4902 -0.7227 0.4872
vn -0.5817 -0.7146 0.3887
vn -0.0021 -0.7227 0.6911
vn -0.1365 -0.7146 0.6861
vn 0.4872 -0.7227 0.4902
vn 0.3887 -0.7146 0.5817
vn 0.6911 -0.7227 0.0021
vn 0.6861 -0.7146 0.1365
vn 0.4902 -0.7227 -0.4872
vn 0.5817 -0.7146 -0.3887
vn 0.0021 -0.7227 -0.6911
vn -0.6911 -0.7227 0.0021
usemtl Diamond_yellow
s 1
f 1/1/1 2/2/1 3/3/1 4/4/1
f 4/4/2 3/3/2 5/5/2 6/6/2
f 6/7/3 5/8/3 7/9/3 8/10/3
f 8/10/4 7/9/4 9/11/4 10/12/4
f 10/12/5 9/11/5 11/13/5 12/14/5
f 12/15/6 11/16/6 13/17/6 14/18/6
f 14/18/7 13/17/7 15/19/7 16/20/7
f 16/20/8 15/19/8 17/21/8 18/22/8
f 18/22/9 17/21/9 19/23/9 20/24/9
f 20/24/10 19/23/10 21/25/10 22/26/10
f 22/27/11 21/28/11 23/29/11 24/30/11
f 24/30/12 23/29/12 25/31/12 26/32/12
f 26/32/13 25/31/13 27/33/13 28/34/13
f 28/34/14 27/33/14 29/35/14 30/36/14
f 30/37/15 29/38/15 31/39/15 32/40/15
f 32/40/16 31/39/16 2/2/16 1/1/16
f 33/41/17 34/42/17 35/43/17 36/44/17 37/45/17 38/46/17 39/47/17 40/48/17 41/49/17 42/50/17 43/51/17 44/52/17 45/53/17 46/54/17 47/55/17 48/56/17
f 25/57/18 49/58/18 50/59/18 51/60/18
f 52/61/19 53/62/19 54/63/19
f 55/64/20 56/65/20 52/61/20
f 57/66/21 58/67/21 55/64/21
f 59/68/22 60/69/22 57/66/22
f 61/70/23 50/59/23 62/71/23 59/68/23 57/66/23 55/64/23 52/61/23 54/63/23
f 63/72/24 61/70/24 54/63/24
f 51/60/25 50/59/25 61/70/25
f 50/59/26 49/58/26 62/71/26
f 62/71/27 64/73/27 59/68/27
f 21/74/28 64/73/28 62/71/28 49/58/28
f 17/75/29 60/69/29 59/68/29 64/73/29
f 13/76/30 58/67/30 57/66/30 60/69/30
f 9/77/31 56/65/31 55/64/31 58/67/31
f 5/78/32 53/62/32 52/61/32 56/65/32
f 2/79/33 63/72/33 54/63/33 53/62/33
f 29/80/34 51/60/34 61/70/34 63/72/34
f 27/81/35 51/60/35 29/80/35
f 27/81/36 25/57/36 51/60/36
f 23/82/37 49/58/37 25/57/37
f 23/82/38 21/74/38 49/58/38
f 19/83/39 64/73/39 21/74/39
f 19/83/40 17/75/40 64/73/40
f 15/84/41 60/69/41 17/75/41
f 15/84/42 13/76/42 60/69/42
f 11/85/43 58/67/43 13/76/43
f 11/85/44 9/77/44 58/67/44
f 7/86/45 56/65/45 9/77/45
f 7/86/46 5/78/46 56/65/46
f 3/87/47 53/62/47 5/78/47
f 3/87/48 2/79/48 53/62/48
f 31/88/49 63/72/49 2/79/49
f 31/88/50 29/80/50 63/72/50
f 65/89/51 32/40/51 1/1/51
f 66/90/52 28/34/52 30/36/52
f 28/34/53 66/90/53 26/32/53
f 22/91/54 67/92/55 44/52/55 43/51/54
f 68/93/56 20/94/56 22/91/56
f 18/22/57 68/95/58 42/96/58 41/97/57
f 69/98/59 16/20/59 18/22/59
f 14/99/60 69/100/61 40/48/61 39/47/60
f 70/101/62 12/102/62 14/99/62
f 10/12/63 70/103/64 38/104/64 37/105/63
f 71/106/65 8/10/65 10/12/65
f 6/107/66 71/108/67 36/44/67 35/43/66
f 72/109/68 4/110/68 6/107/68
f 1/1/69 72/111/70 34/112/70 33/113/69
f 30/114/71 65/115/72 48/56/72 47/55/71
f 4/4/73 72/111/73 1/1/73
f 66/116/74 30/114/71 47/55/71 46/54/74
f 32/40/75 65/89/75 30/37/75
f 67/117/76 26/32/77 45/118/77 44/119/76
f 67/117/78 24/30/78 26/32/78
f 68/93/79 22/91/54 43/51/54 42/50/79
f 24/120/80 67/92/80 22/91/80
f 69/98/81 18/22/57 41/97/57 40/121/81
f 20/24/82 68/95/82 18/22/82
f 70/101/83 14/99/60 39/47/60 38/46/83
f 16/20/84 69/98/84 14/18/84
f 71/106/85 10/12/63 37/105/63 36/122/85
f 12/14/86 70/103/86 10/12/86
f 72/109/87 6/107/66 35/43/66 34/42/87
f 8/10/88 71/106/88 6/7/88
f 65/89/89 1/1/69 33/113/69 48/123/89
f 26/32/77 66/90/90 46/124/90 45/118/77
