# Blender v2.91.2 OBJ File: ''
# www.blender.org
mtllib diamond_big.mtl
o uploads_files_612353_Diamond_00.001
v 2.254609 10.072941 8.194288
v 3.565812 10.915250 5.507017
v 1.755512 10.920185 6.312887
v -2.865542 10.132147 7.926048
v -0.215126 10.937456 6.520007
v -2.153199 10.965390 6.108107
v -6.849563 10.231794 4.699746
v -3.869017 11.001219 5.117503
v -5.194607 11.041463 3.645157
v -8.175712 10.333828 -0.252246
v -6.000221 11.082155 1.835202
v -6.206992 11.119347 -0.135196
v -6.337440 10.399273 -5.038456
v -5.794678 11.149378 -2.073163
v -4.803650 11.169308 -3.788996
v -2.036897 10.403133 -7.830706
v -3.330903 11.177191 -5.114730
v -1.520615 11.172249 -5.920600
v 3.083253 10.343927 -7.562464
v 0.450022 11.154977 -6.127720
v 2.388105 11.127058 -5.715815
v 7.067283 10.244277 -4.336174
v 4.103922 11.091228 -4.725210
v 5.429505 11.050986 -3.252872
v 8.393424 10.142246 0.615830
v 6.235118 11.010278 -1.442915
v 6.441889 10.973088 0.527483
v 6.555151 10.076799 5.402040
v 6.029580 10.943062 2.465443
v 5.038552 10.923132 4.181276
v -0.427869 8.553364 10.054598
v -6.147862 8.653162 7.859042
v -9.484159 8.779882 2.720761
v -9.162393 8.885096 -3.397585
v -5.305475 8.928625 -8.159008
v 0.613373 8.893864 -9.744795
v 6.333374 8.794051 -7.549232
v 9.669662 8.667345 -2.410958
v 9.347901 8.562110 3.707383
v 5.490991 8.518579 8.468812
v 2.657073 8.526301 9.730356
v -3.461843 8.597057 9.409789
v -8.223020 8.716146 5.554161
v -9.807837 8.838078 -0.363803
v -7.610981 8.916302 -6.083638
v -2.471549 8.920904 -9.420563
v 3.647352 8.850150 -9.099991
v 8.408527 8.731062 -5.244362
v 9.993355 8.609127 0.673589
v 7.796496 8.530924 6.393429
v 2.654616 8.370392 9.724617
v 2.743828 4.181336 4.231729
v 5.487652 8.362666 8.463464
v -0.214680 4.198715 5.024373
v -0.429365 8.397438 10.048752
v -3.462398 8.441131 9.404147
v -3.073790 4.248602 3.926939
v -6.147581 8.497206 7.853878
v -8.222097 8.560182 5.549715
v -4.741423 4.311939 1.358590
v -9.482842 8.623887 2.717193
v -9.806426 8.682072 -0.366408
v -4.580587 4.364537 -1.699626
v -9.161186 8.729069 -3.399252
v -7.610250 8.760260 -6.084466
v -2.652724 4.386301 -4.079602
v -5.305466 8.772589 -8.159198
v -2.472414 8.764862 -9.420355
v 0.305778 4.368936 -4.872270
v 0.611554 8.737824 -9.744492
v 3.644588 8.694132 -9.099888
v 3.164898 4.319027 -3.774817
v 6.329779 8.638056 -7.549611
v 8.404287 8.575081 -5.245455
v 4.832522 4.255691 -1.206475
v 9.665028 8.511383 -2.412927
v 9.988620 8.453182 0.670663
v 4.671691 4.203100 1.851753
v 9.343365 8.406186 3.703512
v 7.792440 8.375002 6.388724
v -0.229032 0.218227 -0.084985
v -0.237073 0.215594 0.067931
v -0.153689 0.212439 0.196346
v -0.010735 0.209933 0.251221
v 0.137188 0.209067 0.211582
v 0.233588 0.210155 0.092574
v 0.241633 0.212795 -0.060330
v 0.158249 0.215951 -0.188745
v 0.015295 0.218456 -0.243620
v -0.132632 0.219315 -0.203992
v 0.000000 0.000000 0.000000
vt 0.000000 0.000000
vt 1.000000 1.000000
vt 0.000000 1.000000
vt 0.000000 0.000000
vt 1.000000 1.000000
vt 0.000000 1.000000
vt 0.000000 0.000000
vt 1.000000 1.000000
vt 0.000000 1.000000
vt 0.000000 0.000000
vt 1.000000 1.000000
vt 0.000000 1.000000
vt 0.000000 0.000000
vt 1.000000 1.000000
vt 0.000000 1.000000
vt 0.000000 0.000000
vt 1.000000 1.000000
vt 0.000000 1.000000
vt 0.000000 0.000000
vt 1.000000 1.000000
vt 0.000000 1.000000
vt 0.000000 0.000000
vt 1.000000 1.000000
vt 0.000000 1.000000
vt 0.000000 0.000000
vt 1.000000 1.000000
vt 0.000000 1.000000
vt 0.000000 0.000000
vt 1.000000 1.000000
vt 0.000000 1.000000
vt 0.000000 1.000000
vt 0.000000 1.000000
vt 0.000000 1.000000
vt 0.000000 1.000000
vt 0.000000 1.000000
vt 0.000000 1.000000
vt 0.000000 1.000000
vt 0.000000 1.000000
vt 0.000000 1.000000
vt 0.000000 1.000000
vt 1.000000 0.000000
vt 1.000000 1.000000
vt 1.000000 0.000000
vt 1.000000 1.000000
vt 1.000000 0.000000
vt 1.000000 1.000000
vt 1.000000 0.000000
vt 1.000000 1.000000
vt 1.000000 0.000000
vt 1.000000 1.000000
vt 1.000000 0.000000
vt 1.000000 1.000000
vt 1.000000 0.000000
vt 1.000000 1.000000
vt 1.000000 0.000000
vt 1.000000 1.000000
vt 1.000000 0.000000
vt 1.000000 1.000000
vt 1.000000 0.000000
vt 1.000000 1.000000
vt 0.000000 1.000000
vt 0.000000 0.049995
vt 0.000000 1.000000
vt 0.000000 0.049995
vt 0.000000 1.000000
vt 0.000000 0.049995
vt 0.000000 1.000000
vt 0.000000 0.049995
vt 0.000000 1.000000
vt 0.000000 0.049995
vt 0.000000 1.000000
vt 0.000000 0.049995
vt 0.000000 1.000000
vt 0.000000 0.049995
vt 0.000000 1.000000
vt 0.000000 0.049995
vt 0.000000 1.000000
vt 0.000000 0.049995
vt 0.000000 1.000000
vt 0.000000 0.049995
vt 1.000000 1.000000
vt 1.000000 0.049995
vt 1.000000 1.000000
vt 1.000000 0.049995
vt 1.000000 1.000000
vt 1.000000 0.049995
vt 1.000000 1.000000
vt 1.000000 0.049995
vt 1.000000 1.000000
vt 1.000000 0.049995
vt 1.000000 1.000000
vt 1.000000 0.049996
vt 1.000000 1.000000
vt 1.000000 0.049995
vt 1.000000 1.000000
vt 1.000000 0.049995
vt 1.000000 1.000000
vt 1.000000 0.049995
vt 1.000000 1.000000
vt 1.000000 0.049995
vt 1.000000 0.049995
vt 0.000000 0.049995
vt 1.000000 0.049996
vt 0.000000 0.049995
vt 1.000000 0.049995
vt 0.000000 0.049995
vt 1.000000 0.049995
vt 0.000000 0.049995
vt 1.000000 0.049995
vt 0.000000 0.049995
vt 1.000000 0.049996
vt 0.000000 0.049995
vt 1.000000 0.049996
vt 0.000000 0.049995
vt 1.000000 0.049995
vt 0.000000 0.049995
vt 1.000000 0.049995
vt 0.000000 0.049995
vt 1.000000 0.049995
vt 0.000000 0.049995
vt 0.276986 0.504414
vt 0.376103 0.752207
vt 0.252207 0.504414
vt 0.400883 0.752207
vt 0.301765 0.504414
vt 0.326545 0.504414
vt 0.425662 0.752206
vt 0.351323 0.504412
vt 0.376104 0.504414
vt 0.450441 0.752206
vt 0.400882 0.504412
vt 0.425662 0.504412
vt 0.475221 0.752206
vt 0.450441 0.504412
vt 0.475221 0.504412
vt 0.500000 0.752207
vt 0.500000 0.504414
vt 0.524779 0.504414
vt 0.524779 0.752206
vt 0.549559 0.504414
vt 0.574338 0.504414
vt 0.549559 0.752207
vt 0.599117 0.504414
vt 0.623897 0.504414
vt 0.574338 0.752207
vt 0.648676 0.504414
vt 0.673455 0.504414
vt 0.599117 0.752206
vt 0.698234 0.504414
vt 0.723014 0.504414
vt 0.623897 0.752207
vt 0.747793 0.504414
vt 0.250177 0.500000
vt 0.274823 0.500000
vt 0.749823 0.500000
vt 0.725177 0.500000
vt 0.275177 0.500000
vt 0.299823 0.500000
vt 0.300177 0.500000
vt 0.324823 0.500000
vt 0.325177 0.500000
vt 0.349823 0.500000
vt 0.350177 0.500000
vt 0.374823 0.500000
vt 0.375177 0.500000
vt 0.399823 0.500000
vt 0.400177 0.500000
vt 0.424823 0.500000
vt 0.425177 0.500000
vt 0.449823 0.500000
vt 0.450177 0.500000
vt 0.474823 0.500000
vt 0.475177 0.500000
vt 0.499823 0.500000
vt 0.500177 0.500000
vt 0.524823 0.500000
vt 0.525177 0.500000
vt 0.549823 0.500000
vt 0.550177 0.500000
vt 0.574823 0.500000
vt 0.575177 0.500000
vt 0.599823 0.500000
vt 0.600177 0.500000
vt 0.624823 0.500000
vt 0.625177 0.500000
vt 0.649823 0.500000
vt 0.650177 0.500000
vt 0.674823 0.500000
vt 0.675177 0.500000
vt 0.699823 0.500000
vt 0.700177 0.500000
vt 0.724823 0.500000
vt 0.487610 0.876103
vt 0.475221 0.876103
vt 0.462831 0.876103
vt 0.450441 0.876103
vt 0.438052 0.876103
vt 0.561948 0.876103
vt 0.549559 0.876103
vt 0.537169 0.876104
vt 0.524779 0.876103
vt 0.512390 0.876103
vt 0.500000 0.876103
vt 0.500000 1.000000
vn 0.1663 0.9149 0.3679
vn -0.0703 0.9170 0.3928
vn -0.2762 0.9213 0.2739
vn -0.3729 0.9261 0.0566
vn -0.3234 0.9297 -0.1760
vn -0.1466 0.9307 -0.3351
vn 0.0899 0.9286 -0.3600
vn 0.2958 0.9243 -0.2411
vn 0.3925 0.9194 -0.0238
vn 0.3430 0.9158 0.2088
vn 0.0106 0.9998 0.0178
vn 0.0500 0.9156 0.3990
vn -0.1827 0.9189 0.3496
vn -0.3418 0.9237 0.1729
vn -0.3666 0.9282 -0.0636
vn -0.2476 0.9306 -0.2696
vn -0.0303 0.9300 -0.3663
vn 0.2023 0.9267 -0.3168
vn 0.3614 0.9218 -0.1401
vn 0.3862 0.9174 0.0964
vn 0.2672 0.9150 0.3023
vn -0.0197 0.8294 0.5583
vn -0.3336 0.8349 0.4378
vn -0.5167 0.8419 0.1557
vn -0.4991 0.8476 -0.1801
vn -0.2874 0.8500 -0.4414
vn 0.0375 0.8481 -0.5285
vn 0.3515 0.8426 -0.4080
vn 0.5346 0.8357 -0.1259
vn 0.5169 0.8299 0.2099
vn 0.3052 0.8275 0.4712
vn 0.0795 0.7128 0.6969
vn -0.3363 0.7188 0.6085
vn -0.6207 0.7274 0.2926
vn -0.6650 0.7354 -0.1301
vn -0.4524 0.7397 -0.4982
vn -0.0641 0.7386 -0.6711
vn 0.3517 0.7326 -0.5827
vn 0.6361 0.7240 -0.2669
vn 0.6805 0.7160 0.1559
vn 0.4679 0.7117 0.5240
vn -0.5879 0.7381 -0.3310
vn -0.6763 0.7317 0.0848
vn -0.5035 0.7230 0.4731
vn -0.1354 0.7153 0.6856
vn 0.2874 0.7116 0.6412
vn 0.6033 0.7133 0.3567
vn 0.6918 0.7197 -0.0590
vn 0.5189 0.7284 -0.4473
vn 0.1508 0.7361 -0.6598
vn -0.2719 0.7398 -0.6154
vn 0.2598 -0.7658 0.5883
vn 0.3481 -0.7698 0.5350
vn -0.0424 -0.7675 0.6396
vn 0.0607 -0.7646 0.6416
vn -0.1450 -0.7623 0.6308
vn -0.4197 -0.7610 0.4948
vn -0.3374 -0.7589 0.5570
vn -0.4975 -0.7549 0.4273
vn -0.6398 -0.7526 0.1558
vn -0.6097 -0.7506 0.2545
vn -0.6630 -0.7465 0.0555
vn -0.6186 -0.7457 -0.2478
vn -0.6522 -0.7430 -0.1503
vn -0.5783 -0.7404 -0.3426
vn -0.3641 -0.7428 -0.5619
vn -0.4486 -0.7389 -0.5027
vn -0.2758 -0.7388 -0.6150
vn 0.0263 -0.7451 -0.6665
vn -0.0767 -0.7399 -0.6683
vn 0.1290 -0.7423 -0.6575
vn 0.4036 -0.7517 -0.5216
vn 0.3214 -0.7457 -0.5837
vn 0.4815 -0.7497 -0.4540
vn 0.6237 -0.7600 -0.1827
vn 0.5937 -0.7539 -0.2812
vn 0.6470 -0.7580 -0.0822
vn 0.6025 -0.7670 0.2209
vn 0.6362 -0.7616 0.1236
vn 0.5623 -0.7642 0.3159
vn 0.4326 -0.7657 0.4760
vn 0.5441 -0.0404 0.8380
vn 0.2584 -0.0396 0.9652
vn 0.7766 -0.0392 0.6287
vn -0.0527 -0.0369 0.9979
vn -0.3587 -0.0325 0.9329
vn -0.6295 -0.0268 0.7765
vn -0.8388 -0.0205 0.5441
vn -0.9659 -0.0140 0.2584
vn -0.9986 -0.0081 -0.0527
vn -0.9335 -0.0034 -0.3586
vn -0.7770 -0.0003 -0.6294
vn -0.7771 -0.0003 -0.6294
vn -0.5446 0.0010 -0.8387
vn -0.2588 0.0002 -0.9659
vn 0.0523 -0.0026 -0.9986
vn 0.3582 -0.0070 -0.9336
vn 0.6291 -0.0126 -0.7772
vn 0.8383 -0.0190 -0.5448
vn 0.9655 -0.0254 -0.2591
vn 0.9982 -0.0313 0.0520
vn 0.9331 -0.0360 0.3579
vn -0.6217 -0.7687 0.1506
vn -0.6611 -0.7488 -0.0476
vn -0.6011 -0.7619 -0.2413
vn -0.4080 -0.7768 0.4798
vn -0.5566 -0.7568 0.3427
vn -0.0416 -0.7832 0.6204
vn -0.2425 -0.7647 0.5970
vn 0.3376 -0.7854 0.5188
vn 0.1611 -0.7693 0.6182
vn 0.5846 -0.7826 0.2138
vn 0.5001 -0.7690 0.3981
vn 0.6052 -0.7759 -0.1781
vn 0.6450 -0.7639 0.0208
vn 0.3915 -0.7678 -0.5072
vn 0.5405 -0.7558 -0.3696
vn 0.0251 -0.7614 -0.6478
vn 0.2264 -0.7480 -0.6239
vn -0.3540 -0.7591 -0.5463
vn -0.1772 -0.7433 -0.6450
vn -0.5162 -0.7436 -0.4249
vn -0.6398 -0.7526 0.1559
vn -0.6185 -0.7457 -0.2478
vn -0.0106 -0.9998 -0.0177
vn -0.4197 -0.7609 0.4948
usemtl diamond
s off
f 1/1/1 2/2/1 3/3/1
f 4/4/2 5/5/2 6/6/2
f 7/7/3 8/8/3 9/9/3
f 10/10/4 11/11/4 12/12/4
f 13/13/5 14/14/5 15/15/5
f 16/16/6 17/17/6 18/18/6
f 19/19/7 20/20/7 21/21/7
f 22/22/8 23/23/8 24/24/8
f 25/25/9 26/26/9 27/27/9
f 28/28/10 29/29/10 30/30/10
f 6/6/11 5/31/11 3/3/11 2/32/11 30/30/11 29/33/11 27/27/11 26/34/11 24/24/11 23/35/11 21/21/11 20/36/11 18/18/11 17/37/11 15/15/11 14/38/11 12/12/11 11/39/11 9/9/11 8/40/11
f 5/31/12 1/41/12 3/42/12
f 8/40/13 4/43/13 6/44/13
f 11/39/14 7/45/14 9/46/14
f 14/38/15 10/47/15 12/48/15
f 17/37/16 13/49/16 15/50/16
f 20/36/17 16/51/17 18/52/17
f 23/35/18 19/53/18 21/54/18
f 26/34/19 22/55/19 24/56/19
f 29/33/20 25/57/20 27/58/20
f 2/32/21 28/59/21 30/60/21
f 4/61/22 31/62/22 1/41/22 5/5/22
f 7/63/23 32/64/23 4/43/23 8/8/23
f 10/65/24 33/66/24 7/45/24 11/11/24
f 13/67/25 34/68/25 10/47/25 14/14/25
f 16/69/26 35/70/26 13/49/26 17/17/26
f 19/71/27 36/72/27 16/51/27 20/20/27
f 22/73/28 37/74/28 19/53/28 23/23/28
f 25/75/29 38/76/29 22/55/29 26/26/29
f 28/77/30 39/78/30 25/57/30 29/29/30
f 28/59/31 2/2/31 1/79/31 40/80/31
f 1/81/32 31/62/32 41/82/32
f 4/83/33 32/64/33 42/84/33
f 7/85/34 33/66/34 43/86/34
f 10/87/35 34/68/35 44/88/35
f 13/89/36 35/70/36 45/90/36
f 16/91/37 36/72/37 46/92/37
f 19/93/38 37/74/38 47/94/38
f 22/95/39 38/76/39 48/96/39
f 25/97/40 39/78/40 49/98/40
f 28/99/41 40/80/41 50/100/41
f 34/101/42 13/67/42 45/102/42
f 33/103/43 10/65/43 44/104/43
f 32/105/44 7/63/44 43/106/44
f 31/107/45 4/61/45 42/108/45
f 40/109/46 1/79/46 41/110/46
f 39/111/47 28/77/47 50/112/47
f 38/113/48 25/75/48 49/114/48
f 37/115/49 22/73/49 48/116/49
f 36/117/50 19/71/50 47/118/50
f 35/119/51 16/69/51 46/120/51
s 1
f 51/121/52 52/122/53 53/123/53
f 54/124/54 51/121/55 55/125/54
f 56/126/56 54/124/54 55/125/54
f 57/127/57 56/126/58 58/128/57
f 59/129/59 57/127/57 58/128/57
f 60/130/60 59/129/61 61/131/60
f 62/132/62 60/130/60 61/131/60
f 63/133/63 62/132/64 64/134/63
f 65/135/65 63/133/63 64/134/63
f 66/136/66 65/135/67 67/137/66
f 68/138/68 66/136/66 67/137/66
f 69/139/69 68/138/70 70/140/69
f 71/141/71 69/139/69 70/140/69
f 72/142/72 71/141/73 73/143/72
f 74/144/74 72/142/72 73/143/72
f 75/145/75 74/144/76 76/146/75
f 77/147/77 75/145/75 76/146/75
f 78/148/78 77/147/79 79/149/78
f 80/150/80 78/148/78 79/149/78
f 52/151/53 80/150/81 53/152/53
f 53/123/82 40/153/82 41/154/83 51/121/83
f 40/155/82 53/152/82 80/150/84 50/156/84
f 51/121/83 41/157/83 31/158/85 55/125/85
f 55/125/85 31/159/85 42/160/86 56/126/86
f 56/126/86 42/161/86 32/162/87 58/128/87
f 58/128/87 32/163/87 43/164/88 59/129/88
f 59/129/88 43/165/88 33/166/89 61/131/89
f 61/131/89 33/167/89 44/168/90 62/132/90
f 62/132/90 44/169/90 34/170/91 64/134/91
f 64/134/91 34/171/91 45/172/92 65/135/93
f 65/135/93 45/173/92 35/174/94 67/137/94
f 67/137/94 35/175/94 46/176/95 68/138/95
f 68/138/95 46/177/95 36/178/96 70/140/96
f 70/140/96 36/179/96 47/180/97 71/141/97
f 71/141/97 47/181/97 37/182/98 73/143/98
f 73/143/98 37/183/98 48/184/99 74/144/99
f 74/144/99 48/185/99 38/186/100 76/146/100
f 76/146/100 38/187/100 49/188/101 77/147/101
f 77/147/101 49/189/101 39/190/102 79/149/102
f 79/149/102 39/191/102 50/192/84 80/150/84
f 60/130/103 62/132/104 63/133/105 81/193/105 82/194/103
f 57/127/106 59/129/107 60/130/103 82/194/103 83/195/106
f 54/124/108 56/126/109 57/127/106 83/195/106 84/196/108
f 52/122/110 51/121/111 54/124/108 84/196/108 85/197/110
f 78/148/112 80/150/113 52/151/110 85/198/110 86/199/112
f 75/145/114 77/147/115 78/148/112 86/199/112 87/200/114
f 72/142/116 74/144/117 75/145/114 87/200/114 88/201/116
f 69/139/118 71/141/119 72/142/116 88/201/116 89/202/118
f 66/136/120 68/138/121 69/139/118 89/202/118 90/203/120
f 63/133/105 65/135/122 66/136/120 90/203/120 81/193/105
f 82/194/123 81/193/124 91/204/125
f 83/195/126 82/194/123 91/204/125
f 84/196/54 83/195/126 91/204/125
f 85/197/53 84/196/54 91/204/125
f 86/199/78 85/198/53 91/204/125
f 87/200/75 86/199/78 91/204/125
f 88/201/72 87/200/75 91/204/125
f 89/202/69 88/201/72 91/204/125
f 90/203/66 89/202/69 91/204/125
f 81/193/124 90/203/66 91/204/125
