# Blender v2.91.2 OBJ File: ''
# www.blender.org
mtllib lil_uzi_diamond.mtl
o Cylinder.042_Cylinder.051
v 1.512356 10.608063 0.050018
v 1.715592 10.647507 0.050438
v 1.715592 8.417936 -2.448883
v 1.512356 8.390131 -2.440071
v 1.715591 5.267365 -4.543148
v 1.512355 5.253370 -4.526447
v 1.715591 2.487419 -5.935268
v 1.512355 2.478377 -5.913490
v 1.715591 0.029777 -6.424164
v 1.512355 0.029777 -6.400539
v 1.715591 -2.427887 -5.935268
v 1.512354 -2.418844 -5.913490
v 1.715590 -5.323903 -4.543148
v 1.512354 -5.310370 -4.526447
v 1.715590 -8.559860 -2.459667
v 1.512354 -8.533981 -2.450603
v 1.715590 -10.483080 -0.002014
v 1.512354 -10.446510 -0.002014
v 1.715590 -8.559860 2.455639
v 1.512354 -8.533981 2.446575
v 1.715591 -5.323903 4.539120
v 1.512355 -5.310370 4.522419
v 1.715591 -2.427887 5.931240
v 1.512355 -2.418844 5.909462
v 1.715591 0.029777 6.420135
v 1.512355 0.029777 6.396511
v 1.715592 2.487419 5.931240
v 1.512355 2.478377 5.909462
v 1.715592 5.267365 4.539120
v 1.512356 5.253370 4.522419
v 1.715592 8.417962 2.466381
v 1.512356 8.390131 2.457150
v -4.660427 0.476202 -0.002014
v -4.660427 0.543168 -0.214676
v -4.660427 0.345434 -0.317692
v -4.660427 0.242429 -0.515415
v -4.660427 0.029777 -0.448444
v -4.660427 -0.182874 -0.515415
v -4.660427 -0.285900 -0.317692
v -4.660427 -0.483613 -0.214676
v -4.660427 -0.416668 -0.002014
v -4.660427 -0.483613 0.210648
v -4.660427 -0.285900 0.313664
v -4.660427 -0.182874 0.511387
v -4.660427 0.029777 0.444416
v -4.660427 0.242429 0.511387
v -4.660427 0.345434 0.313664
v -4.660427 0.543168 0.210648
v 3.135977 -1.863125 4.424397
v 3.755123 0.029777 3.276493
v 3.135978 1.914186 4.424397
v 3.755123 2.923548 -2.320271
v 3.135978 6.343314 -1.835487
v 3.755123 4.738065 -0.002014
v 3.755123 0.029777 -3.280522
v 3.135977 1.914186 -4.428425
v 3.755123 -2.959929 -2.320271
v 3.135977 -1.863125 -4.428425
v 3.755122 -4.916812 -0.002014
v 3.135977 -6.598289 -1.835487
v 3.755123 2.923548 2.316242
v 3.755123 -2.959929 2.316242
v 3.135978 6.343340 1.831459
v 3.135977 -6.598289 1.831459
v -4.026123 1.082344 0.433968
v -4.026123 0.465775 1.050552
v -4.026123 -0.406220 1.050552
v -4.026123 -1.022810 0.433968
v -4.026123 -1.022810 -0.437996
v -4.026123 -0.406220 -1.054581
v -4.026123 0.465775 -1.054581
v -4.026123 1.082344 -0.437996
vt 0.986088 0.001093
vt 0.993011 0.000000
vt 0.998097 0.098773
vt 0.991162 0.099417
vt 0.999997 0.212849
vt 0.993059 0.213017
vt 0.999997 0.305421
vt 0.993049 0.305377
vt 0.997268 0.374102
vt 0.990330 0.373805
vt 0.686591 0.628520
vt 0.693529 0.628220
vt 0.696059 0.699715
vt 0.689111 0.699752
vt 0.696059 0.796390
vt 0.689121 0.796232
vt 0.694130 0.912453
vt 0.687200 0.911857
vt 0.688531 1.000000
vt 0.681615 0.998987
vt 0.225005 0.533014
vt 0.231922 0.532001
vt 0.237521 0.619549
vt 0.230590 0.620145
vt 0.239449 0.735611
vt 0.232512 0.735769
vt 0.239449 0.832286
vt 0.232501 0.832249
vt 0.236919 0.903782
vt 0.229981 0.903482
vt 0.990333 0.374399
vt 0.997271 0.374102
vt 1.000000 0.443005
vt 0.993052 0.443049
vt 1.000000 0.535684
vt 0.993062 0.535517
vt 0.998179 0.649415
vt 0.991243 0.648778
vt 0.993399 0.746571
vt 0.986474 0.745493
vt 0.637822 0.326030
vt 0.631020 0.328985
vt 0.626560 0.323547
vt 0.619400 0.321362
vt 0.620572 0.314713
vt 0.617247 0.308667
vt 0.623365 0.304702
vt 0.625823 0.298337
vt 0.633302 0.299379
vt 0.640104 0.296424
vt 0.644564 0.301862
vt 0.651724 0.304047
vt 0.650552 0.310696
vt 0.653877 0.316742
vt 0.647760 0.320707
vt 0.645301 0.327072
vt 0.412220 0.373435
vt 0.320255 0.388089
vt 0.323008 0.321322
vt 0.390752 0.292833
vt 0.218244 0.155493
vt 0.295830 0.077283
vt 0.317874 0.148196
vt 0.136995 0.212538
vt 0.139608 0.145959
vt 0.108438 0.303863
vt 0.069111 0.241215
vt 0.137681 0.391673
vt 0.054294 0.403645
vt 0.349775 0.232416
vt 0.239969 0.380785
vt 0.399857 0.138121
vt 0.158322 0.464483
vt 0.258941 0.477237
vt 0.033826 0.532001
vt 0.001288 0.326557
vt 0.047844 0.160341
vt 0.198957 0.059466
vt 0.429684 0.000000
vt 0.456610 0.210147
vt 0.444220 0.303348
vt 0.352484 0.427302
vt 0.139440 0.524275
vt 0.000000 0.442727
vt 0.015845 0.230428
vt 0.107581 0.106475
vt 0.317169 0.014760
vt 0.456610 0.096307
vt 0.655530 0.342161
vt 0.760454 0.551186
vt 0.690854 0.628220
vt 0.784782 0.475814
vt 0.024494 0.812333
vt 0.000747 0.810128
vt 0.000205 0.804433
vt 0.023324 0.786874
vt 0.582534 0.000000
vt 0.644874 0.279324
vt 0.615594 0.283248
vt 0.509995 0.068104
vt 0.456610 0.173666
vt 0.481104 0.719669
vt 0.457357 0.721873
vt 0.456739 0.717350
vt 0.784782 0.271665
vt 0.761006 0.267935
vt 0.760469 0.261913
vt 0.783650 0.245672
vt 0.626250 0.346085
vt 0.783650 0.501778
vt 0.760454 0.492103
vt 0.760469 0.485440
vt 0.596015 0.573221
vt 0.761006 0.479439
vt 0.000129 0.814651
vt 0.760454 0.132950
vt 0.674435 0.046069
vt 0.456815 0.727569
vt 0.479934 0.745127
vt 0.479573 0.696943
vt 0.456610 0.710789
vt 0.760454 0.255258
vt 0.022963 0.835059
vt 0.000000 0.821213
vn -0.1360 0.7395 -0.6592
vn -0.1086 0.5504 -0.8278
vn -0.1094 0.4447 -0.8890
vn -0.1132 0.1938 -0.9745
vn -0.1132 -0.1938 -0.9745
vn -0.1087 -0.4303 -0.8961
vn -0.1052 -0.5384 -0.8361
vn -0.1336 -0.7808 -0.6104
vn -0.1336 -0.7808 0.6104
vn -0.1052 -0.5384 0.8361
vn -0.1087 -0.4303 0.8961
vn -0.1132 -0.1938 0.9745
vn -0.1132 0.1938 0.9745
vn -0.1094 0.4447 0.8890
vn -0.1092 0.5465 0.8303
vn -0.1365 0.7283 0.6716
vn -1.0000 0.0000 0.0000
vn 0.8389 -0.0000 0.5443
vn 0.9682 0.1972 -0.1543
vn 0.9385 0.1087 -0.3277
vn 0.9378 -0.1062 -0.3307
vn 0.9699 -0.1860 -0.1570
vn 1.0000 -0.0000 -0.0000
vn 0.9682 0.1972 0.1543
vn 0.9385 0.1087 0.3277
vn 0.9378 -0.1062 0.3307
vn 0.9699 -0.1860 0.1570
vn 0.8342 -0.2649 0.4837
vn 0.9390 -0.3440 0.0000
vn 0.8342 -0.2649 -0.4837
vn 0.8389 -0.0000 -0.5443
vn 0.8356 0.2775 -0.4741
vn 0.9453 0.3262 -0.0000
vn 0.8356 0.2775 0.4741
vn 0.7487 0.2968 0.5928
vn 0.7457 0.1300 0.6535
vn 0.7454 -0.1301 0.6538
vn 0.7484 -0.2873 0.5978
vn 0.7451 -0.3611 0.5608
vn 0.8053 -0.4669 0.3654
vn 0.8053 -0.4669 -0.3654
vn 0.7451 -0.3611 -0.5608
vn 0.7484 -0.2873 -0.5978
vn 0.7454 -0.1301 -0.6538
vn 0.7457 0.1300 -0.6535
vn 0.7487 0.2968 -0.5928
vn 0.7597 0.3600 -0.5416
vn 0.8092 0.4384 -0.3911
vn 0.8090 0.4319 0.3986
vn 0.7619 0.3560 0.5411
vn -0.7729 0.4667 0.4300
vn -0.6877 0.3246 0.6494
vn -0.6815 0.1428 0.7177
vn -0.7162 -0.4356 0.5453
vn -0.7208 -0.3753 0.5828
vn -0.7600 -0.4802 0.4380
vn -0.7909 -0.4823 -0.3767
vn -0.7223 -0.5542 -0.4137
vn -0.6881 -0.3139 -0.6543
vn -0.6901 0.0000 -0.7237
vn -0.6901 0.0022 -0.7237
vn -0.6815 0.1428 -0.7177
vn -0.7132 0.4454 -0.5412
vn -0.7181 0.3854 -0.5795
vn -0.7597 0.4775 -0.4414
vn -0.7180 0.5479 0.4293
vn -0.7748 0.4721 -0.4205
vn -0.7132 0.4454 0.5412
vn -0.7177 0.3829 0.5816
vn -0.6901 0.0022 0.7237
vn -0.6901 0.0000 0.7237
vn -0.6815 -0.1428 0.7177
vn -0.7223 -0.5542 0.4137
vn -0.6881 -0.3139 0.6543
vn -0.7600 -0.4802 -0.4380
vn -0.7909 -0.4823 0.3767
vn -0.7162 -0.4356 -0.5453
vn -0.7208 -0.3753 -0.5828
vn -0.6901 -0.0022 -0.7237
vn -0.6815 -0.1428 -0.7177
vn -0.7180 0.5479 -0.4293
vn -0.6877 0.3246 -0.6494
vn -0.7592 0.4728 0.4473
vn -0.6901 -0.0022 0.7237
usemtl Diamond_violet
s 1
f 1/1/1 2/2/1 3/3/1 4/4/1
f 4/4/2 3/3/2 5/5/2 6/6/2
f 6/6/3 5/5/3 7/7/3 8/8/3
f 8/8/4 7/7/4 9/9/4 10/10/4
f 10/11/5 9/12/5 11/13/5 12/14/5
f 12/14/6 11/13/6 13/15/6 14/16/6
f 14/16/7 13/15/7 15/17/7 16/18/7
f 16/18/8 15/17/8 17/19/8 18/20/8
f 18/21/9 17/22/9 19/23/9 20/24/9
f 20/24/10 19/23/10 21/25/10 22/26/10
f 22/26/11 21/25/11 23/27/11 24/28/11
f 24/28/12 23/27/12 25/29/12 26/30/12
f 26/31/13 25/32/13 27/33/13 28/34/13
f 28/34/14 27/33/14 29/35/14 30/36/14
f 30/36/15 29/35/15 31/37/15 32/38/15
f 32/38/16 31/37/16 2/39/16 1/40/16
f 33/41/17 34/42/17 35/43/17 36/44/17 37/45/17 38/46/17 39/47/17 40/48/17 41/49/17 42/50/17 43/51/17 44/52/17 45/53/17 46/54/17 47/55/17 48/56/17
f 25/57/18 49/58/18 50/59/18 51/60/18
f 52/61/19 53/62/19 54/63/19
f 55/64/20 56/65/20 52/61/20
f 57/66/21 58/67/21 55/64/21
f 59/68/22 60/69/22 57/66/22
f 61/70/23 50/59/23 62/71/23 59/68/23 57/66/23 55/64/23 52/61/23 54/63/23
f 63/72/24 61/70/24 54/63/24
f 51/60/25 50/59/25 61/70/25
f 50/59/26 49/58/26 62/71/26
f 62/71/27 64/73/27 59/68/27
f 21/74/28 64/73/28 62/71/28 49/58/28
f 17/75/29 60/69/29 59/68/29 64/73/29
f 13/76/30 58/67/30 57/66/30 60/69/30
f 9/77/31 56/65/31 55/64/31 58/67/31
f 5/78/32 53/62/32 52/61/32 56/65/32
f 2/79/33 63/72/33 54/63/33 53/62/33
f 29/80/34 51/60/34 61/70/34 63/72/34
f 27/81/35 51/60/35 29/80/35
f 27/81/36 25/57/36 51/60/36
f 23/82/37 49/58/37 25/57/37
f 23/82/38 21/74/38 49/58/38
f 19/83/39 64/73/39 21/74/39
f 19/83/40 17/75/40 64/73/40
f 15/84/41 60/69/41 17/75/41
f 15/84/42 13/76/42 60/69/42
f 11/85/43 58/67/43 13/76/43
f 11/85/44 9/77/44 58/67/44
f 7/86/45 56/65/45 9/77/45
f 7/86/46 5/78/46 56/65/46
f 3/87/47 53/62/47 5/78/47
f 3/87/48 2/79/48 53/62/48
f 31/88/49 63/72/49 2/79/49
f 31/88/50 29/80/50 63/72/50
f 65/89/51 32/90/51 1/91/51
f 66/92/52 28/34/52 30/36/52
f 28/34/53 66/92/53 26/31/53
f 22/26/54 67/93/54 44/94/54 43/95/54
f 68/96/55 20/24/55 22/26/55
f 18/97/56 68/98/56 42/50/56 41/49/56
f 69/99/57 16/100/57 18/97/57
f 14/101/58 69/99/58 40/48/58 39/47/58
f 70/102/59 12/14/59 14/16/59
f 10/11/60 70/102/61 38/103/61 37/104/60
f 71/105/62 8/8/62 10/10/62
f 6/6/63 71/105/63 36/106/63 35/107/63
f 72/108/64 4/4/64 6/6/64
f 1/91/65 72/109/65 34/42/65 33/41/65
f 30/36/66 65/110/66 48/111/66 47/112/66
f 4/113/67 72/109/67 1/91/67
f 66/92/68 30/36/68 47/112/68 46/114/68
f 32/38/69 65/110/69 30/36/69
f 67/93/70 26/30/71 45/115/71 44/94/70
f 67/93/72 24/28/72 26/30/72
f 68/98/73 22/116/73 43/51/73 42/50/73
f 24/28/74 67/93/74 22/26/74
f 69/99/75 18/97/75 41/49/75 40/48/75
f 20/117/76 68/98/76 18/97/76
f 70/102/77 14/16/77 39/118/77 38/103/77
f 16/18/78 69/119/78 14/16/78
f 71/120/79 10/11/60 37/104/60 36/121/79
f 12/14/80 70/102/80 10/11/80
f 72/108/81 6/6/81 35/107/81 34/122/81
f 8/8/82 71/105/82 6/6/82
f 65/89/83 1/91/83 33/41/83 48/56/83
f 26/30/71 66/123/84 46/124/84 45/115/71
o Cylinder.014_Cylinder.023
v -3.341311 0.721099 -0.947696
v -3.318875 0.742535 -0.951300
v -3.059661 0.471235 -0.876663
v -3.083051 0.450796 -0.873333
v -2.839912 0.241238 -0.664114
v -2.864110 0.221644 -0.661566
v -2.693079 0.087559 -0.346012
v -2.717816 0.068530 -0.344633
v -2.641520 0.033594 0.029214
v -2.666445 0.014763 0.029214
v -2.693079 0.087559 0.404441
v -2.717816 0.068530 0.403061
v -2.839911 0.241238 0.722542
v -2.864109 0.221644 0.719994
v -3.059661 0.471235 0.935091
v -3.083050 0.450796 0.931761
v -3.318875 0.742535 1.009728
v -3.341311 0.721098 1.006124
v -3.578087 1.013835 0.935091
v -3.599571 0.991401 0.931762
v -3.797837 1.243832 0.722542
v -3.818512 1.220553 0.719994
v -3.944669 1.397512 0.404441
v -3.964806 1.373668 0.403062
v -3.996230 1.451477 0.029214
v -4.016177 1.427434 0.029214
v -3.944669 1.397512 -0.346012
v -3.964806 1.373668 -0.344633
v -3.797837 1.243832 -0.664114
v -3.818512 1.220553 -0.661566
v -3.578087 1.013835 -0.876663
v -3.599571 0.991401 -0.873333
v -4.022727 0.070043 -0.038946
v -4.000298 0.046568 -0.049169
v -3.989432 0.035196 -0.018982
v -3.968578 0.013370 -0.003253
v -3.975641 0.020761 0.029214
v -3.968578 0.013370 0.061682
v -3.989432 0.035196 0.077411
v -4.000298 0.046568 0.107597
v -4.022727 0.070043 0.097374
v -4.045156 0.093518 0.107597
v -4.056021 0.104890 0.077411
v -4.076875 0.126716 0.061682
v -4.069813 0.119325 0.029214
v -4.076875 0.126716 -0.003253
v -4.056021 0.104890 -0.018982
v -4.045156 0.093518 -0.049169
v -3.628942 1.380981 0.309146
v -3.439518 1.319563 0.029214
v -3.628942 1.380981 -0.250718
v -2.849220 0.701737 -0.324729
v -2.968696 0.689948 -0.646601
v -3.093729 0.957649 -0.471338
v -2.747941 0.595735 0.029214
v -2.695214 0.403712 -0.250718
v -2.849220 0.701737 0.383157
v -2.695214 0.403712 0.309146
v -3.093729 0.957649 0.529766
v -2.968696 0.689947 0.705029
v -3.338239 1.213561 -0.324730
v -3.338239 1.213561 0.383158
v -3.355458 1.094746 -0.646601
v -3.355458 1.094746 0.705029
v -3.998690 0.185075 -0.131491
v -4.063723 0.253140 -0.037352
v -4.063723 0.253140 0.095781
v -3.998690 0.185075 0.189920
v -3.906719 0.088816 0.189920
v -3.841686 0.020750 0.095781
v -3.841686 0.020750 -0.037352
v -3.906719 0.088816 -0.131491
vt 0.587689 0.918838
vt 0.584140 0.925227
vt 0.511271 0.883976
vt 0.515087 0.877739
vt 0.457555 0.848497
vt 0.461568 0.842390
vt 0.988436 0.719038
vt 0.995851 0.718572
vt 1.000000 0.800839
vt 0.992570 0.801003
vt 1.000000 0.889884
vt 0.992570 0.889721
vt 0.995851 0.972151
vt 0.988436 0.971685
vt 0.462631 0.649142
vt 0.457555 0.643846
vt 0.503831 0.599451
vt 0.508737 0.604911
vt 0.567878 0.545992
vt 0.572548 0.551648
vt 0.639944 0.491608
vt 0.644350 0.497464
vt 0.709060 0.444579
vt 0.713211 0.450607
vt 0.764701 0.412063
vt 0.768648 0.418211
vt 0.004013 0.605269
vt 0.000000 0.599162
vt 0.053717 0.563683
vt 0.057533 0.569920
vt 0.126586 0.522433
vt 0.130134 0.528821
vt 0.207513 0.481690
vt 0.210764 0.488229
vt 0.284179 0.447659
vt 0.287148 0.454323
vt 0.744703 0.993337
vt 0.741734 1.000000
vt 0.665068 0.965969
vt 0.668319 0.959431
vt 0.666694 0.226102
vt 0.667572 0.233978
vt 0.659799 0.236198
vt 0.654728 0.242374
vt 0.647627 0.238566
vt 0.639577 0.239426
vt 0.637308 0.231821
vt 0.630995 0.226859
vt 0.634887 0.219912
vt 0.634008 0.212036
vt 0.641782 0.209816
vt 0.646853 0.203640
vt 0.653954 0.207448
vt 0.662004 0.206588
vt 0.664273 0.214193
vt 0.670586 0.219155
vt 0.183271 0.447659
vt 0.132097 0.365392
vt 0.205546 0.338095
vt 0.262727 0.390814
vt 0.327788 0.159104
vt 0.399453 0.190614
vt 0.345568 0.246558
vt 0.252009 0.109565
vt 0.325458 0.082267
vt 0.162621 0.126961
vt 0.194828 0.056845
vt 0.111987 0.201101
vt 0.084086 0.129241
vt 0.294934 0.320699
vt 0.129767 0.288556
vt 0.373470 0.318419
vt 0.058102 0.257045
vt 0.034829 0.350619
vt 0.000000 0.179307
vt 0.099185 0.034076
vt 0.274284 0.000000
vt 0.422726 0.097040
vt 0.457555 0.268352
vt 0.358370 0.413583
vt 0.274284 0.447659
vt 0.099185 0.413583
vt 0.000000 0.268352
vt 0.034829 0.097040
vt 0.183271 0.000000
vt 0.358369 0.034076
vt 0.457555 0.179307
vt 0.422726 0.350619
vt 0.736781 0.749573
vt 0.279226 0.698086
vt 0.521675 0.033951
vt 0.642717 0.183299
vt 0.616383 0.200514
vt 0.457555 0.096684
vt 0.762720 0.683412
vt 0.768648 0.709798
vt 0.762338 0.714689
vt 0.737674 0.701404
vt 0.457555 0.349330
vt 0.610204 0.230905
vt 0.627800 0.256670
vt 0.521675 0.412063
vt 0.769783 0.867855
vt 0.744808 0.856333
vt 0.744703 0.848457
vt 0.770519 0.837463
vt 0.779906 0.412063
vt 0.658863 0.262715
vt 0.685197 0.245500
vt 0.844026 0.349330
vt 0.709497 0.735028
vt 0.731396 0.718572
vt 0.738601 0.722085
vt 0.844026 0.096684
vt 0.691376 0.215109
vt 0.673780 0.189344
vt 0.251942 0.712632
vt 0.281047 0.725574
vt 0.273841 0.729087
vt 0.605451 0.000000
vt 0.756432 0.718573
vt 0.745167 0.841509
vt 0.744703 0.725667
vt 0.287148 0.721992
vn 0.0521 -0.2183 -0.9745
vn 0.2995 -0.4773 -0.8261
vn 0.4889 -0.6755 -0.5520
vn 0.5913 -0.7828 -0.1938
vn 0.5913 -0.7828 0.1938
vn 0.4889 -0.6755 0.5520
vn 0.2995 -0.4773 0.8261
vn 0.0521 -0.2183 0.9745
vn -0.2157 0.0620 0.9745
vn -0.4632 0.3209 0.8261
vn -0.6525 0.5191 0.5520
vn -0.7550 0.6264 0.1938
vn -0.7550 0.6264 -0.1938
vn -0.6525 0.5191 -0.5520
vn -0.4632 0.3209 -0.8261
vn -0.2157 0.0620 -0.9745
vn -0.7230 -0.6908 -0.0000
vn 0.2306 0.9731 0.0000
vn 0.7698 0.5600 -0.3062
vn 0.8937 0.4303 -0.1269
vn 0.8937 0.4303 0.1269
vn 0.7698 0.5600 0.3063
vn 0.7230 0.6908 0.0000
vn 0.5945 0.7435 -0.3063
vn 0.4706 0.8732 -0.1269
vn 0.4706 0.8732 0.1269
vn 0.5945 0.7435 0.3063
vn 0.3407 0.8578 0.3849
vn 0.6066 0.5795 0.5443
vn 0.8724 0.3013 0.3849
vn 0.9825 0.1860 0.0000
vn 0.8724 0.3013 -0.3849
vn 0.6066 0.5795 -0.5443
vn 0.3407 0.8578 -0.3849
vn 0.1593 0.9157 -0.3689
vn 0.0908 0.9874 -0.1295
vn 0.0908 0.9874 0.1295
vn 0.1593 0.9157 0.3689
vn 0.2858 0.7833 0.5521
vn 0.4512 0.6102 0.6512
vn 0.6301 0.4229 0.6512
vn 0.7955 0.2499 0.5521
vn 0.9220 0.1174 0.3689
vn 0.9905 0.0457 0.1295
vn 0.9905 0.0457 -0.1295
vn 0.9220 0.1174 -0.3689
vn 0.7955 0.2499 -0.5521
vn 0.6301 0.4229 -0.6512
vn 0.4512 0.6102 -0.6512
vn 0.2858 0.7833 -0.5521
vn -0.5914 -0.3676 -0.7177
vn -0.9131 -0.0309 -0.4066
vn -0.9886 0.0481 -0.1428
vn -0.8525 -0.1067 0.5118
vn -0.8514 -0.1078 0.5133
vn -0.7736 -0.1769 0.6085
vn -0.4989 -0.4767 0.7237
vn -0.4974 -0.4783 0.7237
vn -0.3941 -0.5740 0.7177
vn -0.1454 -0.8467 0.5118
vn -0.1443 -0.8479 0.5102
vn -0.0724 -0.9107 0.4066
vn 0.0010 -1.0000 -0.0000
vn 0.0010 -1.0000 -0.0022
vn 0.0030 -0.9898 -0.1428
vn -0.1454 -0.8467 -0.5118
vn -0.1465 -0.8456 -0.5133
vn -0.2119 -0.7648 -0.6085
vn -0.4989 -0.4767 -0.7237
vn -0.5005 -0.4751 -0.7237
vn -0.8525 -0.1067 -0.5118
vn -0.8536 -0.1056 -0.5102
vn -0.3941 -0.5740 -0.7177
vn -0.8514 -0.1078 -0.5133
vn -0.7736 -0.1769 -0.6085
vn -0.9989 0.0466 -0.0022
vn -0.9989 0.0466 0.0000
vn -0.9886 0.0481 0.1428
vn -0.8536 -0.1056 0.5102
vn -0.9131 -0.0309 0.4066
vn -0.5005 -0.4751 0.7237
vn -0.5914 -0.3676 0.7177
vn -0.1465 -0.8456 0.5133
vn -0.2119 -0.7648 0.6085
vn 0.0010 -1.0000 0.0022
vn 0.0030 -0.9898 0.1428
vn -0.1443 -0.8479 -0.5102
vn -0.0724 -0.9107 -0.4066
vn -0.4974 -0.4783 -0.7237
vn -0.9989 0.0466 0.0022
usemtl Diamond_white
s 1
f 73/125/85 74/126/85 75/127/85 76/128/85
f 76/128/86 75/127/86 77/129/86 78/130/86
f 78/131/87 77/132/87 79/133/87 80/134/87
f 80/134/88 79/133/88 81/135/88 82/136/88
f 82/136/89 81/135/89 83/137/89 84/138/89
f 84/139/90 83/140/90 85/141/90 86/142/90
f 86/142/91 85/141/91 87/143/91 88/144/91
f 88/144/92 87/143/92 89/145/92 90/146/92
f 90/146/93 89/145/93 91/147/93 92/148/93
f 92/148/94 91/147/94 93/149/94 94/150/94
f 94/151/95 93/152/95 95/153/95 96/154/95
f 96/154/96 95/153/96 97/155/96 98/156/96
f 98/156/97 97/155/97 99/157/97 100/158/97
f 100/158/98 99/157/98 101/159/98 102/160/98
f 102/161/99 101/162/99 103/163/99 104/164/99
f 104/164/100 103/163/100 74/126/100 73/125/100
f 105/165/101 106/166/101 107/167/101 108/168/101 109/169/101 110/170/101 111/171/101 112/172/101 113/173/101 114/174/101 115/175/101 116/176/101 117/177/101 118/178/101 119/179/101 120/180/101
f 97/181/102 121/182/102 122/183/102 123/184/102
f 124/185/103 125/186/103 126/187/103
f 127/188/104 128/189/104 124/185/104
f 129/190/105 130/191/105 127/188/105
f 131/192/106 132/193/106 129/190/106
f 133/194/107 122/183/107 134/195/107 131/192/107 129/190/107 127/188/107 124/185/107 126/187/107
f 135/196/108 133/194/108 126/187/108
f 123/184/109 122/183/109 133/194/109
f 122/183/110 121/182/110 134/195/110
f 134/195/111 136/197/111 131/192/111
f 93/198/112 136/197/112 134/195/112 121/182/112
f 89/199/113 132/193/113 131/192/113 136/197/113
f 85/200/114 130/191/114 129/190/114 132/193/114
f 81/201/115 128/189/115 127/188/115 130/191/115
f 77/202/116 125/186/116 124/185/116 128/189/116
f 74/203/117 135/196/117 126/187/117 125/186/117
f 101/204/118 123/184/118 133/194/118 135/196/118
f 99/205/119 123/184/119 101/204/119
f 99/205/120 97/181/120 123/184/120
f 95/206/121 121/182/121 97/181/121
f 95/206/122 93/198/122 121/182/122
f 91/207/123 136/197/123 93/198/123
f 91/207/124 89/199/124 136/197/124
f 87/208/125 132/193/125 89/199/125
f 87/208/126 85/200/126 132/193/126
f 83/209/127 130/191/127 85/200/127
f 83/209/128 81/201/128 130/191/128
f 79/210/129 128/189/129 81/201/129
f 79/210/130 77/202/130 128/189/130
f 75/211/131 125/186/131 77/202/131
f 75/211/132 74/203/132 125/186/132
f 103/212/133 135/196/133 74/203/133
f 103/212/134 101/204/134 135/196/134
f 137/213/135 104/164/135 73/125/135
f 138/214/136 100/158/136 102/160/136
f 100/158/137 138/214/137 98/156/137
f 94/215/138 139/216/139 116/176/139 115/175/138
f 140/217/140 92/218/140 94/215/140
f 90/146/141 140/219/142 114/220/142 113/221/141
f 141/222/143 88/144/143 90/146/143
f 86/223/144 141/224/145 112/172/145 111/171/144
f 142/225/146 84/226/146 86/223/146
f 82/136/147 142/227/148 110/228/148 109/229/147
f 143/230/149 80/134/149 82/136/149
f 78/231/150 143/232/151 108/168/151 107/167/150
f 144/233/152 76/234/152 78/231/152
f 73/125/153 144/235/154 106/236/154 105/237/153
f 102/238/155 137/239/156 120/180/156 119/179/155
f 76/128/157 144/235/157 73/125/157
f 138/240/158 102/238/155 119/179/155 118/178/158
f 104/164/159 137/213/159 102/161/159
f 139/241/160 98/156/161 117/242/161 116/243/160
f 139/241/162 96/154/162 98/156/162
f 140/217/163 94/215/138 115/175/138 114/174/163
f 96/244/164 139/216/164 94/215/164
f 141/222/165 90/146/141 113/221/141 112/245/165
f 92/148/166 140/219/166 90/146/166
f 142/225/167 86/223/144 111/171/144 110/170/167
f 88/144/168 141/222/168 86/142/168
f 143/230/169 82/136/147 109/229/147 108/246/169
f 84/138/170 142/227/170 82/136/170
f 144/233/171 78/231/150 107/167/150 106/166/171
f 80/134/172 143/230/172 78/131/172
f 137/213/173 73/125/153 105/237/153 120/247/173
f 98/156/161 138/214/174 118/248/174 117/242/161
