# Blender v2.91.2 OBJ File: ''
# www.blender.org
mtllib talla_esmeralda.mtl
o emerald_obj_1
v -2.634285 4.597471 4.293461
v -3.754285 4.034797 3.200001
v -3.754286 -4.034798 3.199999
v -2.634286 -4.597472 4.293459
v -3.754285 4.034798 -3.199999
v -2.634285 4.597472 -4.293459
v -2.634286 -4.597471 -4.293461
v -3.754286 -4.034797 -3.200001
v -2.634286 -6.919240 2.545237
v -3.754287 -6.072409 1.897016
v -3.754287 -6.072408 -1.897018
v -2.634286 -6.919240 -2.545240
v -2.634285 6.919240 -2.545237
v -3.754285 6.072409 -1.897016
v -3.754285 6.072408 1.897018
v -2.634285 6.919240 2.545240
v 3.791706 6.119523 2.295369
v 3.791706 4.066101 3.871964
v 3.791704 -4.066105 3.871963
v 3.791704 -6.119525 2.295368
v 3.791704 -6.119524 -2.295370
v 3.791704 -4.066104 -3.871964
v 3.791706 4.066102 -3.871963
v 3.791706 6.119524 -2.295367
v -4.030668 3.805098 -0.077563
v -4.030668 2.751516 -0.130838
v -4.030669 -2.751516 -0.130839
v -4.030670 -3.805098 -0.077564
v -4.030670 -3.805098 0.077563
v -4.030669 -2.751516 0.130838
v -4.030668 2.751516 0.130839
v -4.030668 3.805098 0.077564
v -1.256575 5.123231 5.662441
v -1.256575 7.710514 3.356796
v -1.256577 -5.123234 5.662439
v -1.256577 -7.710515 3.356793
v -1.256577 -7.710514 -3.356796
v -1.256577 -5.123232 -5.662441
v -1.256575 5.123233 -5.662439
v -1.256575 7.710515 -3.356793
v 0.947759 5.831845 6.745243
v 0.947759 8.776984 3.998700
v 0.947758 -5.831849 6.745241
v 0.947757 -8.776987 3.998698
v 0.947757 -8.776985 -3.998701
v 0.947758 -5.831847 -6.745243
v 0.947759 5.831847 -6.745241
v 0.947759 8.776986 -3.998697
v 1.341426 5.831845 6.745243
v 1.341427 8.776984 3.998700
v 1.341425 -5.831849 6.745241
v 1.341425 -8.776987 3.998698
v 1.341425 -8.776985 -3.998701
v 1.341425 -5.831847 -6.745243
v 1.341426 5.831847 -6.745241
v 1.341427 8.776986 -3.998697
v 2.207341 5.489583 6.046238
v 2.207341 8.261874 3.584317
v 2.207339 -5.489585 6.046236
v 2.207338 -8.261878 3.584316
v 2.207338 -8.261876 -3.584319
v 2.207339 -5.489583 -6.046238
v 2.207341 5.489584 -6.046236
v 2.207341 8.261876 -3.584315
v 3.240622 4.704429 4.971291
v 3.240622 7.080213 2.947069
v 3.240621 -4.704432 4.971289
v 3.240621 -7.080215 2.947068
v 3.240621 -7.080214 -2.947071
v 3.240621 -4.704430 -4.971291
v 3.240622 4.704431 -4.971289
v 3.240622 7.080214 -2.947067
vn -0.6992 -0.0000 0.7150
vn -0.6986 -0.0000 0.7155
vn -0.6991 -0.0000 0.7150
vn -0.6986 0.0000 -0.7155
vn -0.6991 -0.0000 -0.7150
vn -0.6992 -0.0000 -0.7150
vn -0.6031 -0.7977 -0.0000
vn -0.6031 0.7977 0.0000
vn 1.0000 -0.0000 -0.0000
vn -1.0000 0.0000 -0.0000
vn -0.7378 0.3636 0.5686
vn -0.6759 0.4433 0.5887
vn -0.6669 -0.4014 0.6278
vn -0.7344 -0.4082 0.5422
vn -0.7344 0.4082 -0.5422
vn -0.6669 0.4014 -0.6278
vn -0.6759 -0.4433 -0.5887
vn -0.7378 -0.3636 -0.5686
vn -0.7152 0.4204 0.5583
vn -0.6350 0.5140 0.5768
vn -0.7049 -0.0000 0.7094
vn -0.6322 -0.4660 0.6189
vn -0.7056 -0.4714 0.5290
vn -0.4980 -0.8672 -0.0000
vn -0.7152 -0.4204 -0.5583
vn -0.6350 -0.5140 -0.5768
vn -0.7049 0.0000 -0.7094
vn -0.6322 0.4660 -0.6189
vn -0.7056 0.4714 -0.5290
vn -0.4980 0.8672 0.0000
vn -0.5021 0.5754 0.6456
vn -0.4771 0.5994 0.6427
vn -0.4409 -0.0000 0.8976
vn -0.4747 -0.5856 0.6571
vn -0.5007 -0.5904 0.6330
vn -0.4355 -0.9002 -0.0000
vn -0.5021 -0.5754 -0.6456
vn -0.4771 -0.5994 -0.6427
vn -0.4409 0.0000 -0.8976
vn -0.4747 0.5856 -0.6571
vn -0.5007 0.5904 -0.6330
vn -0.4355 0.9002 0.0000
vn 0.0000 0.6820 0.7313
vn 0.0000 -0.0000 1.0000
vn 0.0000 -0.6820 0.7313
vn 0.0000 -1.0000 -0.0000
vn 0.0000 -0.6820 -0.7313
vn 0.0000 0.0000 -1.0000
vn 0.0000 0.6820 -0.7313
vn 0.0000 1.0000 0.0000
vn 0.6520 0.5171 0.5545
vn 0.6014 0.5305 0.5974
vn 0.6281 -0.0000 0.7781
vn 0.6029 -0.5441 0.5835
vn 0.6547 -0.5019 0.5652
vn 0.5113 -0.8594 -0.0000
vn 0.6520 -0.5171 -0.5545
vn 0.6014 -0.5305 -0.5974
vn 0.6281 0.0000 -0.7781
vn 0.6029 0.5441 -0.5835
vn 0.6547 0.5019 -0.5652
vn 0.5113 0.8594 0.0000
vn 0.7886 0.4083 0.4598
vn 0.7711 0.4129 0.4846
vn 0.7209 -0.0000 0.6930
vn 0.7735 -0.4208 0.4739
vn 0.7891 -0.3984 0.4676
vn 0.7528 -0.6583 -0.0000
vn 0.7886 -0.4083 -0.4598
vn 0.7711 -0.4129 -0.4846
vn 0.7209 0.0000 -0.6930
vn 0.7735 0.4208 -0.4739
vn 0.7891 0.3984 -0.4676
vn 0.7528 0.6583 0.0000
vn 0.9151 0.2615 0.3069
vn 0.8944 0.2724 0.3548
vn 0.8940 -0.0000 0.4481
vn 0.8971 -0.2865 0.3363
vn 0.9163 -0.2439 0.3177
vn 0.8674 -0.4976 -0.0000
vn 0.9151 -0.2615 -0.3069
vn 0.8944 -0.2724 -0.3548
vn 0.8940 -0.0000 -0.4481
vn 0.8971 0.2865 -0.3363
vn 0.9163 0.2439 -0.3177
vn 0.8674 0.4976 0.0000
vn -0.9965 0.0453 -0.0708
vn -0.9899 0.0072 -0.1415
vn -0.9960 0.0000 -0.0897
vn -0.9961 -0.0035 -0.0882
vn -0.9960 0.0004 -0.0897
vn -0.9950 -0.0538 -0.0841
vn -0.9961 -0.0044 -0.0878
vn -0.9927 -0.1210 -0.0000
vn -0.9965 -0.0453 0.0708
vn -0.9899 -0.0072 0.1415
vn -0.9960 0.0000 0.0897
vn -0.9961 0.0035 0.0882
vn -0.9960 -0.0004 0.0897
vn -0.9950 0.0538 0.0841
vn -0.9961 0.0044 0.0878
vn -0.9927 0.1210 0.0000
usemtl emerald_obj_1Default
s 1
f 1//1 2//2 3//2
f 1//1 3//2 4//3
f 5//4 6//5 7//6
f 5//4 7//6 8//4
f 9//7 10//7 11//7
f 9//7 11//7 12//7
f 13//8 14//8 15//8
f 13//8 15//8 16//8
f 17//9 18//9 19//9
f 17//9 19//9 20//9
f 17//9 20//9 21//9
f 17//9 21//9 22//9
f 17//9 22//9 23//9
f 17//9 23//9 24//9
f 25//10 26//10 27//10
f 25//10 27//10 28//10
f 25//10 28//10 29//10
f 25//10 29//10 30//10
f 25//10 30//10 31//10
f 25//10 31//10 32//10
f 15//11 2//11 1//11
f 15//12 1//12 16//12
f 3//13 10//13 9//13
f 3//14 9//14 4//14
f 13//15 6//15 5//15
f 13//16 5//16 14//16
f 7//17 12//17 11//17
f 7//18 11//18 8//18
f 16//19 1//19 33//19
f 16//20 33//20 34//20
f 1//1 4//3 35//21
f 1//1 35//21 33//21
f 4//22 9//22 36//22
f 4//23 36//23 35//23
f 9//24 12//24 37//24
f 9//24 37//24 36//24
f 12//25 7//25 38//25
f 12//26 38//26 37//26
f 7//6 6//5 39//27
f 7//6 39//27 38//27
f 6//28 13//28 40//28
f 6//29 40//29 39//29
f 13//30 16//30 34//30
f 13//30 34//30 40//30
f 34//31 33//31 41//31
f 34//32 41//32 42//32
f 33//33 35//33 43//33
f 33//33 43//33 41//33
f 35//34 36//34 44//34
f 35//35 44//35 43//35
f 36//36 37//36 45//36
f 36//36 45//36 44//36
f 37//37 38//37 46//37
f 37//38 46//38 45//38
f 38//39 39//39 47//39
f 38//39 47//39 46//39
f 39//40 40//40 48//40
f 39//41 48//41 47//41
f 40//42 34//42 42//42
f 40//42 42//42 48//42
f 42//43 41//43 49//43
f 42//43 49//43 50//43
f 41//44 43//44 51//44
f 41//44 51//44 49//44
f 43//45 44//45 52//45
f 43//45 52//45 51//45
f 44//46 45//46 53//46
f 44//46 53//46 52//46
f 45//47 46//47 54//47
f 45//47 54//47 53//47
f 46//48 47//48 55//48
f 46//48 55//48 54//48
f 47//49 48//49 56//49
f 47//49 56//49 55//49
f 48//50 42//50 50//50
f 48//50 50//50 56//50
f 50//51 49//51 57//51
f 50//52 57//52 58//52
f 49//53 51//53 59//53
f 49//53 59//53 57//53
f 51//54 52//54 60//54
f 51//55 60//55 59//55
f 52//56 53//56 61//56
f 52//56 61//56 60//56
f 53//57 54//57 62//57
f 53//58 62//58 61//58
f 54//59 55//59 63//59
f 54//59 63//59 62//59
f 55//60 56//60 64//60
f 55//61 64//61 63//61
f 56//62 50//62 58//62
f 56//62 58//62 64//62
f 58//63 57//63 65//63
f 58//64 65//64 66//64
f 57//65 59//65 67//65
f 57//65 67//65 65//65
f 59//66 60//66 68//66
f 59//67 68//67 67//67
f 60//68 61//68 69//68
f 60//68 69//68 68//68
f 61//69 62//69 70//69
f 61//70 70//70 69//70
f 62//71 63//71 71//71
f 62//71 71//71 70//71
f 63//72 64//72 72//72
f 63//73 72//73 71//73
f 64//74 58//74 66//74
f 64//74 66//74 72//74
f 66//75 65//75 18//75
f 66//76 18//76 17//76
f 65//77 67//77 19//77
f 65//77 19//77 18//77
f 67//78 68//78 20//78
f 67//79 20//79 19//79
f 68//80 69//80 21//80
f 68//80 21//80 20//80
f 69//81 70//81 22//81
f 69//82 22//82 21//82
f 70//83 71//83 23//83
f 70//83 23//83 22//83
f 71//84 72//84 24//84
f 71//85 24//85 23//85
f 72//86 66//86 17//86
f 72//86 17//86 24//86
f 14//87 5//87 26//87
f 14//88 26//88 25//88
f 5//89 8//90 27//91
f 5//89 27//91 26//89
f 8//92 11//92 28//92
f 8//90 28//93 27//91
f 11//94 10//94 29//94
f 11//94 29//94 28//94
f 10//95 3//95 30//95
f 10//96 30//96 29//96
f 3//97 2//98 31//99
f 3//97 31//99 30//97
f 2//100 15//100 32//100
f 2//98 32//101 31//99
f 15//102 14//102 25//102
f 15//102 25//102 32//102
